<mxfile host="app.diagrams.net" modified="2023-04-02T06:45:01.327Z" agent="Mozilla/5.0 (Windows NT 10.0; Win64; x64) AppleWebKit/537.36 (KHTML, like Gecko) Chrome/111.0.0.0 Safari/537.36" version="21.1.1" etag="VPKGKpsBwEjSkf43osZn" type="github">
  <diagram name="Trang-1" id="wFMeMNRQaR6aCkXApKN7">
    <mxGraphModel>
      <root>
        <mxCell id="0" />
        <mxCell id="1" parent="0" />
      </root>
    </mxGraphModel>
  </diagram>
</mxfile>
